<svg width="16" height="15" viewBox="0 0 16 15" fill="none" xmlns="http://www.w3.org/2000/svg">
<path d="M11.3867 10.0106C11.7117 9.46862 11.9013 8.85629 11.9395 8.22547C11.9776 7.59465 11.8632 6.96391 11.606 6.38667C11.3487 5.80942 10.9562 5.30266 10.4616 4.90928C9.96696 4.5159 9.38484 4.24749 8.7645 4.12677C7.15827 3.80147 5.47145 4.5568 4.62538 5.95404C4.25967 6.56657 4.06449 7.26578 4.06007 7.97916C4.05566 8.69254 4.24218 9.39411 4.60028 10.0111H11.3867V10.0106Z" fill="#04A999"/>
<path d="M11.9465 8C11.9398 8.70777 11.7467 9.40126 11.3867 10.0107H12.199C12.5031 9.38361 12.6643 8.69689 12.671 8C12.6739 8.46671 11.9499 8.46575 11.9465 8Z" fill="#04A999"/>
<path d="M4.6249 5.95409C5.47145 4.55685 7.15779 3.80152 8.76402 4.12681C9.65727 4.31146 10.4603 4.79655 11.0394 5.50129C11.6185 6.20604 11.9386 7.0879 11.9465 8C11.9499 7.53377 12.6739 7.53425 12.6705 8C12.6622 7.04052 12.3624 6.10624 11.8107 5.32119C11.259 4.53615 10.4815 3.93746 9.58161 3.6046C7.75868 2.93759 5.62637 3.52641 4.40192 5.02501C3.25854 6.42466 3.01481 8.39142 3.78462 10.0107H4.59932C4.24138 9.39369 4.05499 8.69219 4.05949 7.9789C4.06399 7.26561 4.2592 6.56652 4.6249 5.95409Z" fill="#04A999"/>
<path d="M11.9465 7.99993C11.9499 8.46568 12.6739 8.46665 12.6705 7.99993C12.6671 7.53322 11.9499 7.53225 11.9465 7.99993Z" fill="#04A999"/>
<path d="M7.63802 0.349673V1.97376C7.63802 2.4395 8.36198 2.44047 8.36198 1.97376V0.349673C8.36198 -0.116075 7.63802 -0.11704 7.63802 0.349673Z" fill="#04A999"/>
<path d="M3.86233 1.5573L4.67461 2.9642C4.90773 3.36769 5.53323 3.00329 5.30204 2.59884L4.48976 1.19194C4.25472 0.788939 3.62873 1.15285 3.86233 1.5573Z" fill="#04A999"/>
<path d="M1.55724 3.86423C1.15327 3.63063 0.787909 4.25613 1.19188 4.49166L2.59877 5.30394C3.00323 5.53754 3.3681 4.91204 2.96413 4.67651L1.55724 3.86423Z" fill="#04A999"/>
<path d="M0.349673 8.36202H1.97376C2.4395 8.36202 2.44047 7.63806 1.97376 7.63806H0.349673C-0.116075 7.63806 -0.11704 8.36202 0.349673 8.36202Z" fill="#04A999"/>
<path d="M15.6503 7.63806H14.0262C13.5605 7.63806 13.5595 8.36202 14.0262 8.36202H15.6503C16.1161 8.36202 16.117 7.63806 15.6503 7.63806Z" fill="#04A999"/>
<path d="M14.4428 3.86422L13.0359 4.6765C12.6324 4.90962 12.9968 5.53512 13.4012 5.30394L14.8081 4.49165C15.2116 4.25468 14.8472 3.62869 14.4428 3.86422Z" fill="#04A999"/>
<path d="M11.5127 1.19194L10.7028 2.59884C10.4692 3.00329 11.0947 3.36816 11.3302 2.96419L12.1425 1.5573C12.3713 1.15333 11.7458 0.788453 11.5127 1.19194Z" fill="#04A999"/>
<path d="M15.5929 10.0107H12.199C12.1394 10.1343 12.0751 10.255 12.0059 10.3727H13.922V10.7347H15.5929C16.0601 10.7347 16.0601 10.0107 15.5929 10.0107Z" fill="#04A999"/>
<path d="M0.407107 10.3727H3.97864C3.9085 10.2543 3.84415 10.1337 3.78559 10.0107H0.407107C-0.0586407 10.0107 -0.059606 10.7347 0.407107 10.7347H2.07801V10.3727H0.407107Z" fill="#04A999"/>
<path d="M11.3867 10.0107H4.5998C4.67311 10.136 4.75369 10.2569 4.84112 10.3727H11.1444C11.2316 10.2565 11.3125 10.1357 11.3867 10.0107Z" fill="#04A999"/>
<path d="M4.84305 10.3727C4.75562 10.2569 4.67504 10.136 4.60173 10.0107H3.78462C3.84286 10.1337 3.90721 10.2543 3.97768 10.3727H4.84305Z" fill="#04A999"/>
<path d="M11.1458 10.3727H12.0059C12.0757 10.255 12.1401 10.1343 12.199 10.0107H11.3867C11.313 10.1356 11.2326 10.2565 11.1458 10.3727Z" fill="#04A999"/>
<path d="M3.99988 10.4118C3.99216 10.3987 3.98492 10.3857 3.9772 10.3727H2.07801V10.7347H4.21514C4.13888 10.6309 4.06745 10.5247 3.99988 10.4118Z" fill="#04A999"/>
<path d="M5.15677 10.7347H10.8413C10.9499 10.6201 11.0516 10.4993 11.1458 10.3727H4.84305C4.87266 10.4116 4.90306 10.4499 4.93427 10.4875C5.00506 10.5738 5.07923 10.6562 5.15677 10.7347Z" fill="#04A999"/>
<path d="M12.0059 10.3727C11.9322 10.4969 11.8532 10.6175 11.7689 10.7347H13.922V10.3727H12.0059Z" fill="#04A999"/>
<path d="M10.8413 10.7347H11.7646C11.8489 10.6175 11.9279 10.4969 12.0016 10.3727H11.1458C11.0516 10.4993 10.9499 10.6201 10.8413 10.7347Z" fill="#04A999"/>
<path d="M4.93379 10.4875C4.90161 10.4499 4.8712 10.4116 4.84257 10.3727H3.97719C3.98492 10.3857 3.99216 10.3987 3.99988 10.4118C4.06745 10.5233 4.13936 10.6309 4.21514 10.7347H5.15677C5.07954 10.6558 5.00522 10.5735 4.93379 10.4875Z" fill="#04A999"/>
<path d="M13.922 12.3103V12.6723H14.0402C14.506 12.6723 14.507 11.9484 14.0402 11.9484H13.922V12.3103Z" fill="#04A999"/>
<path d="M2.07801 12.3103V11.9484H1.95976C1.49401 11.9484 1.49305 12.6723 1.95976 12.6723H2.07801V12.3103Z" fill="#04A999"/>
<path d="M5.72628 12.5643L5.83729 12.6705H5.98208L5.72628 12.5643Z" fill="#04A999"/>
<path d="M10.5054 11.9374C10.2832 12.082 10.0487 12.2068 9.80459 12.3105H13.922V11.9485H11.0604C10.877 11.9465 10.6912 11.9398 10.5054 11.9374Z" fill="#04A999"/>
<path d="M10.0174 12.6705H10.1622L10.2732 12.5643L10.0174 12.6705Z" fill="#04A999"/>
<path d="M10.0174 12.3104L8 14.241L5.98257 12.3104H2.07801V12.6724H5.83729L5.72628 12.5662L5.98208 12.6724H5.83729L7.7442 14.4973C7.81299 14.5635 7.90476 14.6005 8.00024 14.6005C8.09572 14.6005 8.18749 14.5635 8.25628 14.4973L10.1632 12.6724H10.0184L10.2742 12.5662L10.1632 12.6724H13.922V12.3104H10.0174Z" fill="#04A999"/>
<path d="M5.98257 12.3104H6.2292C5.97419 12.2063 5.72872 12.0802 5.49558 11.9335C5.38071 11.9402 5.2726 11.9484 5.18524 11.9484H2.07801V12.3104H5.98257Z" fill="#04A999"/>
<path d="M10.0174 11.9464C9.80845 11.9609 9.66849 12.1395 9.52659 12.2775L9.49619 12.3103H9.80652C10.0505 12.2073 10.285 12.0832 10.5073 11.9392C10.3423 11.9348 10.1786 11.9353 10.0174 11.9464Z" fill="#04A999"/>
<path d="M6.2456 12.0591C6.07523 11.9114 5.76634 11.9143 5.49558 11.9312C5.72872 12.0778 5.97418 12.204 6.22919 12.3081H6.52553C6.43287 12.2241 6.33956 12.1411 6.2456 12.0591Z" fill="#04A999"/>
<path d="M8.2558 13.9833C8.17053 13.9019 8.08575 13.8199 8.00145 13.7372L7.7442 13.9833H8.2558Z" fill="#04A999"/>
<path d="M8.89144 12.8853L8 13.7367C8.08462 13.8194 8.16941 13.9015 8.25435 13.9829H7.7442L8.00145 13.7367C7.57093 13.3163 7.14573 12.8853 6.70556 12.4746C6.54395 12.4277 6.38494 12.3723 6.22919 12.3086H5.98256L8 14.2411L10.0174 12.3105H9.80459C9.64346 12.3789 9.47843 12.4377 9.31037 12.4867L8.89144 12.8853Z" fill="#04A999"/>
<path d="M9.31037 12.4842C9.47838 12.436 9.6434 12.378 9.80459 12.3104H9.49619L9.31037 12.4842Z" fill="#04A999"/>
<path d="M6.52553 12.3104H6.22919C6.38494 12.3741 6.54395 12.4296 6.70556 12.4765C6.64571 12.4195 6.5857 12.3642 6.52553 12.3104Z" fill="#04A999"/>
<path d="M10.0174 13.8824C9.55169 13.8824 9.55072 14.6064 10.0174 14.6064H12.6575C13.1232 14.6064 13.1242 13.8824 12.6575 13.8824H10.0174Z" fill="#04A999"/>
<path d="M5.98256 13.8824H3.34252C2.87677 13.8824 2.87581 14.6064 3.34252 14.6064H5.98256C6.44831 14.6064 6.44879 13.8824 5.98256 13.8824Z" fill="#04A999"/>
</svg>
