<svg width="20" height="22" viewBox="0 0 20 22" fill="none" xmlns="http://www.w3.org/2000/svg">
<path d="M12.2592 17.7857C14.5558 17.7857 16.4176 15.7688 16.4176 13.2809C16.4176 10.7929 14.5558 8.776 12.2592 8.776C9.96264 8.776 8.10089 10.7929 8.10089 13.2809C8.10089 15.7688 9.96264 17.7857 12.2592 17.7857Z" fill="#04A999"/>
<path d="M16.0498 13.2807C16.0371 14.977 15.0559 16.5579 13.5681 17.137C12.8264 17.4246 12.0209 17.4582 11.2611 17.2329C10.5012 17.0077 9.82367 16.5346 9.32049 15.8779C8.31425 14.5589 8.19852 12.63 9.00764 11.168C9.81675 9.70604 11.4477 8.9076 12.9993 9.25131C13.8559 9.44483 14.6257 9.95007 15.1806 10.6831C15.7356 11.4161 16.0423 12.3327 16.0498 13.2807C16.0538 13.7934 16.7893 13.7944 16.7854 13.2807C16.7773 12.274 16.4869 11.2937 15.9527 10.4699C15.4184 9.64605 14.6656 9.01764 13.7941 8.66801C12.0249 7.962 9.94375 8.58726 8.75951 10.1735C7.57526 11.7598 7.39677 14.0329 8.37212 15.7956C9.35286 17.5694 11.2933 18.4847 13.1621 18.0857C15.2584 17.6368 16.7707 15.5735 16.7854 13.2807C16.7893 12.7681 16.0538 12.7675 16.0498 13.2807Z" fill="#04A999"/>
<path d="M12.627 6.97985V5.2799C12.627 4.76726 11.8915 4.7662 11.8915 5.2799V6.97985C11.8915 7.49249 12.627 7.49355 12.627 6.97985Z" fill="#04A999"/>
<path d="M9.6686 7.62272L8.88401 6.15173C8.64716 5.70762 8.01164 6.1087 8.24653 6.55387L9.03112 8.02486C9.26797 8.46897 9.90349 8.06789 9.6686 7.62272Z" fill="#04A999"/>
<path d="M7.40751 9.78627L6.04967 8.9363C5.63874 8.67918 5.26802 9.36766 5.67846 9.6269L7.0363 10.4769C7.44723 10.734 7.81795 10.0455 7.40751 9.78627Z" fill="#04A999"/>
<path d="M6.44299 12.8824H4.87381C4.4006 12.8824 4.39962 13.6793 4.87381 13.6793H6.44299C6.9162 13.6793 6.91718 12.8824 6.44299 12.8824Z" fill="#04A999"/>
<path d="M7.03628 16.0874L5.67845 16.9373C5.2685 17.1939 5.63873 17.8824 6.04966 17.6279L7.40749 16.778C7.81744 16.5214 7.44722 15.8329 7.03628 16.0874Z" fill="#04A999"/>
<path d="M9.0336 18.537L8.24901 20.008C8.01167 20.4531 8.64719 20.8547 8.88649 20.4101L9.67108 18.9391C9.90842 18.4939 9.2729 18.0923 9.0336 18.537Z" fill="#04A999"/>
<path d="M11.8915 19.5819V21.2819C11.8915 21.7945 12.627 21.7956 12.627 21.2819V19.5819C12.627 19.0693 11.8915 19.0682 11.8915 19.5819Z" fill="#04A999"/>
<path d="M14.8499 18.9392L15.6345 20.4102C15.8714 20.8543 16.5069 20.4533 16.272 20.0081L15.4874 18.5371C15.2506 18.093 14.615 18.4941 14.8499 18.9392Z" fill="#04A999"/>
<path d="M17.111 16.7753L18.4688 17.6253C18.8797 17.8824 19.2504 17.194 18.84 16.9347L17.4822 16.0847C17.0712 15.8276 16.7005 16.5161 17.111 16.7753Z" fill="#04A999"/>
<path d="M18.0755 13.6793H19.6447C20.1179 13.6793 20.1189 12.8824 19.6447 12.8824H18.0755C17.6023 12.8824 17.6013 13.6793 18.0755 13.6793Z" fill="#04A999"/>
<path d="M17.4822 10.4745L18.84 9.62453C19.2499 9.36794 18.8797 8.67946 18.4688 8.93392L17.1109 9.7839C16.701 10.0405 17.0712 10.729 17.4822 10.4745Z" fill="#04A999"/>
<path d="M15.4849 8.02485L16.2695 6.55386C16.5068 6.10869 15.8713 5.70707 15.632 6.15172L14.8474 7.62271C14.6101 8.06788 15.2456 8.46949 15.4849 8.02485Z" fill="#04A999"/>
</svg>
