<svg width="16" height="12" viewBox="0 0 16 12" fill="none" xmlns="http://www.w3.org/2000/svg">
<path fill-rule="evenodd" clip-rule="evenodd" d="M11.7041 0.207892C12.4855 -0.0634607 13.293 -0.0601915 14.0221 0.165391C12.5084 0.744059 11.7172 2.42775 12.2534 3.97087C12.7895 5.51398 14.4536 6.34439 16 5.85726C15.5652 6.48824 14.9342 6.99171 14.1561 7.25979C13.9894 7.31864 13.8194 7.36441 13.6494 7.3971C13.1851 6.40323 12.1782 5.71341 11.0078 5.71341C10.828 5.71341 10.6547 5.72976 10.4847 5.75918C10.2199 5.05955 9.77196 4.44492 9.2031 3.97741C9.09849 2.34275 10.0825 0.770213 11.7041 0.207892Z" fill="#04A999"/>
<path fill-rule="evenodd" clip-rule="evenodd" d="M2.30813 11.5393H2.27544C1.02002 11.5393 0 10.5193 0 9.26063C0 8.01503 0.997139 7.00481 2.23621 6.98192C2.38333 4.76206 4.23376 3.00317 6.49285 3.00317C8.31712 3.00317 9.87331 4.1507 10.4847 5.7592C10.6547 5.72978 10.828 5.71343 11.0078 5.71343C12.4888 5.71343 13.7115 6.81846 13.8978 8.24715C14.8034 8.25042 15.539 8.98601 15.539 9.89161C15.539 10.7874 14.8263 11.5165 13.9371 11.5393H13.8946H13.8717H11.0372H11.0078H10.9718H6.53535H6.49285H6.45035H2.30813Z" fill="#04A999"/>
</svg>
