<?xml version="1.0" encoding="utf-8"?>
<!-- Generator: Adobe Illustrator 25.2.0, SVG Export Plug-In . SVG Version: 6.00 Build 0)  -->
<svg version="1.1" id="Layer_1" xmlns="http://www.w3.org/2000/svg" xmlns:xlink="http://www.w3.org/1999/xlink" x="0px" y="0px"
	 viewBox="0 0 1280 1024" style="enable-background:new 0 0 1280 1024;" xml:space="preserve">
<style type="text/css">
	.st0{fill:#00A99D;}
</style>
<g>
	<g>
		<path className="st0" d="M682.48,544.43c-1.8,4.38-4.32,8.49-7.18,12.34c-2.91,3.82-6.2,7.38-9.73,10.66
			c-3.54,3.3-7.39,6.27-11.39,9.02c-0.82,0.54-1.64,1.09-2.47,1.6c-2.89,1.84-5.86,3.58-8.92,5.12c-3.07-1.55-6.05-3.27-8.94-5.12
			c1.53-0.48,3.05-1,4.56-1.56c1.46-0.54,2.93-1.12,4.37-1.72c6.96-2.9,13.68-6.53,19.94-10.87c3.79-2.61,7.41-5.53,10.72-8.77
			c1.66-1.62,3.3-3.29,4.79-5.08C679.74,548.26,681.16,546.39,682.48,544.43z"/>
		<path className="st0" d="M755.17,491.1c-3.49,5.32-7.09,11.44-10.74,18.5c-0.47-3.25-1.24-6.48-2.29-9.66
			c-1.33-4.01-3.09-7.92-5.18-11.75c-2.06-3.77-4.41-7.46-6.97-11.06c-2.44-3.44-5.08-6.8-7.85-10.12
			c-0.15-0.19-0.31-0.38-0.47-0.57c-1.85-2.23-3.75-4.45-5.71-6.65c-1.1-1.26-2.21-2.52-3.35-3.77
			c-12.47-13.74-25.86-27.3-37.83-42.39c-5.94-7.56-11.58-15.47-16.4-23.9c-4.86-8.41-8.9-17.33-11.81-26.6
			c-1.68-5.3-2.94-10.69-3.8-16.13c-0.85,5.44-2.12,10.84-3.8,16.13c-2.91,9.27-6.96,18.19-11.81,26.6
			c-4.82,8.43-10.46,16.34-16.4,23.9c-11.96,15.09-25.35,28.65-37.83,42.39c-3.1,3.44-6.15,6.91-9.06,10.42
			c-2.93,3.5-5.73,7.06-8.31,10.69c-5.14,7.27-9.52,14.86-12.16,22.81c-2.63,7.94-3.5,16.18-2.43,24.43
			c0.53,4.13,1.56,8.23,2.87,12.29c1.35,4.05,3.05,8.13,4.99,11.95c3.92,7.65,8.92,14.64,15.3,20.05
			c6.28,5.53,13.87,9.45,22.11,11.73c4.11,1.16,8.39,1.82,12.73,2.17c4.34,0.37,8.77,0.29,13.18-0.09
			c7.29-0.61,14.58-2.14,21.68-4.42c2.89,1.85,5.87,3.58,8.94,5.12c-0.41,0.22-0.82,0.41-1.23,0.61c-8.77,4.32-18.19,7.5-28.03,9.18
			c-9.81,1.63-20.12,1.78-30.21-0.38c-2.53-0.5-5.02-1.22-7.5-2c-2.45-0.86-4.9-1.77-7.25-2.9c-4.74-2.19-9.24-4.98-13.34-8.25
			c-8.21-6.55-14.77-14.91-19.55-23.94c-2.41-4.53-4.45-9.12-6.17-13.97c-1.68-4.87-2.94-9.94-3.66-15.16
			c-0.7-5.21-0.83-10.56-0.32-15.85c0.5-5.3,1.7-10.5,3.38-15.46c3.36-9.94,8.64-18.8,14.53-26.75c5.89-7.98,12.4-15.18,19.04-22.05
			c13.24-13.78,27.02-26.41,39.29-40.2c6.18-6.85,11.94-13.99,17.14-21.52c5.14-7.55,9.68-15.5,13.27-23.93
			c3.6-8.41,6.2-17.27,7.83-26.41c1.6-9.14,2.77-22.72,2.77-22.72s1.17,13.58,2.78,22.72c1.62,9.14,4.22,18,7.83,26.41
			c3.58,8.43,8.11,16.38,13.27,23.93c5.18,7.53,10.95,14.67,17.13,21.52c12.28,13.79,26.05,26.42,39.3,40.2
			c6.63,6.87,13.14,14.07,19.03,22.05c1.37,1.85,2.71,3.75,4.01,5.71C749.61,479.33,752.74,485,755.17,491.1z"/>
		<path className="st0" d="M796.14,456.05c0,0-18.41,0.77-40.96,35.05c-3.49,5.32-7.09,11.44-10.74,18.5c-1.9,3.67-3.8,7.58-5.71,11.76
			c-13.09,28.68-49.33,27-81.61,19.03c1.5,0.18,46.79,5.71,66.56-28.53c4.89-8.46,9.11-16.47,13.28-23.67
			c3-5.18,5.98-9.95,9.16-14.16C757.13,459.48,770.6,451.59,796.14,456.05z"/>
		<polygon className="st0" points="704.65,566.91 694.35,559.59 684.06,566.91 694.35,574.23 		"/>
		<polygon className="st0" points="722.15,580.04 711.86,572.72 701.56,580.04 711.86,587.37 		"/>
		<path className="st0" d="M720.6,471.17c0,0-21.57,0.4-39.03,40.08c-10.58,24.05-35.16,22.44-52.88,17.45c0,0,20.74,2,32.64-19.43
			C673.24,487.84,680.67,460.86,720.6,471.17z"/>
		<path className="st0" d="M680.13,472.76c0,0-21.57,0.4-39.03,40.08c-10.58,24.05-35.16,22.44-52.88,17.45c0,0,20.74,2,32.64-19.43
			C632.77,489.43,640.19,462.44,680.13,472.76z"/>
		<path className="st0" d="M639,475.48c0,0-21.52,0.4-38.94,39.99c-10.56,24-35.08,22.39-52.76,17.41c0,0,20.69,1.99,32.57-19.39
			C591.75,492.11,599.15,465.19,639,475.48z"/>
	</g>
	<g>
		<path d="M506.04,637.4l-17.5-26.36c-3.97-5.8-7.84-10.69-14.45-11.19v-2.04h9.67c7.63,0,12.21,5.7,15.67,11.19l14.45,22.39
			l20.96-33.58h5.09l-23.61,38.36v28.8h-10.28V637.4z"/>
		<path d="M580.63,652.26l-2.54-6.41H550l-8.24,19.13h-4.78l28.9-67.16h3.46l22.49,54.44c3.05,7.22,5.7,9.97,11.09,10.48v2.24
			c-1.12,0.31-2.75,0.51-4.27,0.51C593.45,665.49,585.11,663.96,580.63,652.26z M576.05,641.68l-11.91-28.8l-12.52,28.8H576.05z"/>
		<path d="M607.08,634.15h26.56v7.73h-26.56V634.15z"/>
		<path d="M648.29,654.4v-11.19h2.14c2.24,13.84,8.85,19.33,20.35,19.33c7.12,0,13.13-3.56,13.13-10.28c0-5.9-3.76-9.57-10.99-13.84
			l-12.52-7.43c-8.75-5.19-12.11-10.07-12.11-17.71c0-10.48,8.24-17.3,20.56-17.3c10.38,0,22.29,4.48,22.29,12.21v11.19H689
			c-2.34-13.84-8.65-19.23-19.84-19.23c-6.31,0-11.8,3.97-11.8,10.18c0,5.9,3.97,8.85,11.09,13.13l12.52,7.43
			c8.85,5.19,12.82,9.36,12.82,16.99c0,11.5-8.45,18.83-22.29,18.83C660.4,666.71,648.29,662.03,648.29,654.4z"/>
		<path d="M709.55,652.46v-54.65h10.28v54.65c0,6.11,1.02,10.18,7.12,10.18h1.73v2.34h-9.97
			C711.58,664.98,709.55,662.74,709.55,652.46z"/>
		<path d="M748.32,612.37v52.61h-4.27v-54.95c0-5.9-2.14-9.87-9.16-9.87h-0.92v-2.34h6.72c6.92,0,11.09,2.24,14.25,6.11l35.41,43.35
			v-49.46h4.38v67.98h-2.75L748.32,612.37z"/>
	</g>
</g>
</svg>
