<svg width="16" height="15" viewBox="0 0 16 15" fill="none" xmlns="http://www.w3.org/2000/svg">
<path d="M6.32038 10.2938H7.47828L7.74224 10.041C7.81153 9.97435 7.90395 9.9371 8.00012 9.9371C8.09629 9.9371 8.18871 9.97435 8.258 10.041L8.52196 10.2938H9.67987C9.67987 10.1115 9.79751 9.92924 10.0318 9.92924H12.1746C12.4996 9.60943 12.7863 9.253 13.0292 8.86709C11.9528 9.13921 10.8246 9.12946 9.75312 8.83878C8.68168 8.54809 7.70318 7.98629 6.91197 7.20752C6.13336 6.4164 5.57165 5.43807 5.28098 4.36681C4.9903 3.29555 4.98046 2.16748 5.2524 1.09131C4.04574 1.84567 3.16594 3.02521 2.78686 4.39684C2.24582 6.3928 2.88408 8.5239 4.30206 9.92729H5.96843C6.20177 9.92924 6.32038 10.1115 6.32038 10.2938Z" fill="#04A999"/>
<path d="M10.7877 2.26917C10.7576 2.32847 10.7255 2.3868 10.6905 2.44319C10.5043 2.73319 10.2626 2.98348 9.97931 3.17965C9.89756 3.23669 9.81196 3.28802 9.72313 3.33326C9.91886 3.43667 10.1005 3.56475 10.2637 3.71436C10.4759 3.90884 10.6521 4.13922 10.7843 4.39491L10.813 4.3429C10.9764 4.04869 11.1979 3.79071 11.4639 3.58457C11.5855 3.48872 11.7157 3.40427 11.8528 3.33228C11.399 3.09302 11.0278 2.72253 10.7877 2.26917Z" fill="white"/>
<path d="M10.988 1.7616H10.584L10.6035 1.82868C10.6161 1.88518 10.6354 1.94 10.6608 1.99201C10.6977 2.08692 10.7401 2.1796 10.7877 2.26958C10.8337 2.1792 10.875 2.08656 10.9117 1.99201C10.9355 1.93028 10.9885 1.83014 10.988 1.7616Z" fill="#04A999"/>
<path d="M12.1012 3.22046C12.0492 3.24136 11.9976 3.26275 11.9466 3.28608C11.9145 3.30067 11.8839 3.31671 11.8533 3.33469C12.0143 3.42006 12.1837 3.48848 12.3588 3.53886C12.2863 3.52255 12.2214 3.48224 12.1746 3.42445C12.1279 3.36667 12.102 3.29479 12.1012 3.22046Z" fill="#04A999"/>
<path d="M12.3593 3.53645C12.1842 3.48607 12.0147 3.41765 11.8537 3.33229C11.7166 3.40427 11.5865 3.48873 11.4649 3.58458C11.1988 3.79072 10.9774 4.0487 10.814 4.34291L10.7853 4.39492C10.8076 4.43867 10.8295 4.48242 10.849 4.52714C10.8903 4.61881 10.9268 4.7126 10.9583 4.80811C11.0069 4.95735 11.0225 4.90825 10.7862 4.90825C10.4994 4.90825 10.5869 4.96415 10.6035 4.84117C10.6234 4.69533 10.7099 4.53152 10.7848 4.39541C10.6526 4.13971 10.4764 3.90933 10.2642 3.71485C10.1007 3.56606 9.91889 3.4388 9.72313 3.33618C9.64244 3.3775 9.5598 3.41493 9.47521 3.44895C9.41202 3.47423 9.31334 3.53013 9.24674 3.52819C9.15957 3.56481 9.14839 3.5 9.2132 3.33375V3.13104C9.25919 3.13853 9.30398 3.1521 9.3464 3.17139C9.47616 3.21545 9.60228 3.26957 9.72362 3.33326C9.81245 3.28802 9.89804 3.2367 9.97979 3.17965C10.2628 2.98277 10.504 2.73181 10.6895 2.44125C10.7255 2.38486 10.7576 2.32653 10.7867 2.26723C10.7391 2.17725 10.6967 2.08457 10.6599 1.98966C10.6344 1.93764 10.6152 1.88283 10.6025 1.82633L10.5831 1.75924H10.987C10.987 1.82778 10.9345 1.92792 10.9107 1.98917C10.8741 2.08372 10.8327 2.17636 10.7867 2.26674C11.0271 2.72025 11.3986 3.09075 11.8528 3.32986C11.8834 3.31382 11.9145 3.29777 11.9461 3.28125C11.9947 3.25791 12.0487 3.23653 12.1007 3.21562C12.0914 2.99299 12.2718 2.75333 12.5523 2.82674C12.1357 2.71376 11.7734 2.45502 11.5315 2.09757C11.3215 1.77723 11.2884 1.19925 10.8086 1.18029C10.2943 1.16036 10.2593 1.76702 10.0425 2.09757C9.81311 2.43527 9.47633 2.68554 9.08681 2.80778C8.88654 2.87486 8.71834 2.96868 8.65758 3.18889C8.62699 3.30178 8.63524 3.42168 8.681 3.52932C8.72675 3.63696 8.80736 3.7261 8.90987 3.78242C9.07758 3.87478 9.27105 3.90444 9.44021 4.00117C9.62884 4.109 9.79687 4.24939 9.93653 4.41582C10.0565 4.55985 10.1527 4.72215 10.2214 4.89658C10.3079 5.11582 10.339 5.32971 10.5831 5.4313C10.683 5.47412 10.7939 5.48439 10.9 5.46066C11.0061 5.43693 11.102 5.3804 11.1742 5.29908C11.3093 5.14304 11.3312 4.91263 11.4269 4.73228C11.6569 4.29916 12.0273 4.00603 12.4862 3.84659C12.7107 3.76881 12.893 3.65215 12.9276 3.39597C12.9445 3.27164 12.9159 3.14538 12.8471 3.04044C12.7784 2.93549 12.674 2.85891 12.5532 2.82479C13.0039 2.96285 12.8128 3.66576 12.3593 3.53645Z" fill="#04A999"/>
<path d="M12.2922 3.15191C12.2588 3.15962 12.2262 3.1707 12.195 3.18497C12.1639 3.19615 12.1333 3.2083 12.1026 3.22045C12.1039 3.29445 12.13 3.36587 12.1767 3.42326C12.2234 3.48066 12.2881 3.52068 12.3603 3.53691C12.1974 3.49316 12.5639 3.11934 12.2922 3.15191Z" fill="#04A999"/>
<path d="M12.1012 3.22045C12.1318 3.20829 12.1624 3.19614 12.1935 3.18496C12.2247 3.17069 12.2573 3.15962 12.2908 3.1519C12.5625 3.11933 12.1935 3.49218 12.3578 3.53642C12.8099 3.66572 13.0029 2.96232 12.5523 2.8335C12.2728 2.75816 12.0919 2.99732 12.1012 3.22045Z" fill="#04A999"/>
<path d="M9.21272 3.13098V3.33272C9.1479 3.49734 9.15908 3.56216 9.24626 3.52716C9.31286 3.52716 9.41153 3.4732 9.47473 3.44792C9.55931 3.4139 9.64195 3.37695 9.72264 3.33515C9.60131 3.27146 9.47518 3.21733 9.34543 3.17327C9.30326 3.15335 9.25863 3.13913 9.21272 3.13098Z" fill="#04A999"/>
<path d="M10.7858 4.90774C11.022 4.90774 11.006 4.95635 10.9578 4.8076C10.9264 4.71208 10.8898 4.6183 10.8485 4.52663C10.8285 4.48191 10.8072 4.43816 10.7848 4.39441C10.7099 4.53052 10.6234 4.69385 10.6035 4.84017C10.5865 4.96364 10.499 4.90774 10.7858 4.90774Z" fill="#04A999"/>
<path d="M5.53482 0.247925C5.42062 0.52227 5.32624 0.80445 5.2524 1.09229C5.51345 0.927046 5.78698 0.782396 6.07052 0.659658L5.53482 0.247925Z" fill="#04A999"/>
<path d="M6.91197 7.20901C7.24204 7.54346 7.7578 7.0277 7.42773 6.69325C7.09766 6.35881 6.57704 6.87846 6.91197 7.20901Z" fill="#04A999"/>
<path d="M2.78686 4.39875C3.16594 3.02712 4.04574 1.84758 5.2524 1.09322C5.32624 0.805375 5.42063 0.523195 5.53483 0.24885L6.06955 0.660583C5.78601 0.783321 5.51248 0.927971 5.25143 1.09322C4.97949 2.16939 4.98933 3.29746 5.28 4.36872C5.57068 5.43998 6.13239 6.41831 6.911 7.20943C6.57656 6.87888 7.09232 6.3636 7.42676 6.69367C5.79392 5.0409 5.34476 2.57925 6.23725 0.442321C6.37628 0.109823 5.95093 -0.0773287 5.70253 0.0305872C4.194 0.683949 2.99613 1.89475 2.35901 3.41021C1.72188 4.92567 1.69474 6.62866 2.28325 8.16366C2.5322 8.80297 2.88048 9.39897 3.31526 9.92969H4.30254C2.88408 8.52678 2.24533 6.39471 2.78686 4.39875Z" fill="#04A999"/>
<path d="M13.4608 8.05042C13.3381 8.33332 13.1938 8.60635 13.0292 8.86708C13.3167 8.79319 13.5985 8.69881 13.8725 8.58465L13.4608 8.05042Z" fill="#04A999"/>
<path d="M6.91197 7.209C7.70333 7.98751 8.68189 8.54904 9.75333 8.83947C10.8248 9.12989 11.953 9.13941 13.0292 8.86711C13.1938 8.60607 13.3382 8.33271 13.4608 8.04948L13.8725 8.58419C13.5985 8.69852 13.3167 8.79307 13.0292 8.86711C12.7865 9.25246 12.5001 9.6084 12.1755 9.9278H13.1643C13.5426 9.47021 13.8545 8.9616 14.0908 8.41697C14.1978 8.16954 14.0106 7.74323 13.6791 7.88226C11.5402 8.77475 9.08098 8.32559 7.42773 6.69275C7.75731 7.02768 7.24204 7.54344 6.91197 7.209Z" fill="#04A999"/>
<path d="M13.9649 10.2938V10.6584H15.6478C16.1169 10.6584 16.1179 9.9292 15.6478 9.9292H13.1643C13.0606 10.0549 12.9522 10.1765 12.8391 10.2938H13.9649Z" fill="#04A999"/>
<path d="M10.0323 9.9292C9.79751 9.9292 9.68035 10.1115 9.68035 10.2938H11.7667C11.9087 10.1787 12.0449 10.0572 12.1755 9.9292H10.0323Z" fill="#04A999"/>
<path d="M11.7667 10.2938H12.8391C12.9519 10.1765 13.0603 10.0549 13.1643 9.9292H12.1755C12.0453 10.0572 11.909 10.1787 11.7667 10.2938Z" fill="#04A999"/>
<path d="M12.8391 10.2938C12.7172 10.4205 12.5905 10.5421 12.4589 10.6584H13.9659V10.2938H12.8391Z" fill="#04A999"/>
<path d="M9.68035 10.2938C9.68035 10.4761 9.79751 10.6584 10.0323 10.6584H11.2612C11.4362 10.5464 11.6048 10.4247 11.7662 10.2938H9.68035Z" fill="#04A999"/>
<path d="M12.4589 10.6584C12.5905 10.5421 12.7172 10.4205 12.8391 10.2938H11.7667C11.6053 10.4247 11.4367 10.5464 11.2617 10.6584H12.4589Z" fill="#04A999"/>
<path d="M0.352914 10.6584H2.03582V10.2938H3.63657C3.52477 10.1765 3.4175 10.0549 3.31477 9.9292H0.352914C-0.117638 9.9292 -0.117638 10.6584 0.352914 10.6584Z" fill="#04A999"/>
<path d="M6.32038 10.2938C6.32038 10.1115 6.20322 9.9292 5.96795 9.9292H4.30206C4.43168 10.0569 4.56715 10.1784 4.70844 10.2938H6.32038Z" fill="#04A999"/>
<path d="M4.70844 10.2938C4.56682 10.1787 4.43136 10.0572 4.30205 9.9292H3.31477C3.4175 10.0546 3.52477 10.1761 3.63657 10.2938H4.70844Z" fill="#04A999"/>
<path d="M3.63657 10.2938H2.03582V10.6584H4.01428C3.88465 10.5421 3.75875 10.4205 3.63657 10.2938Z" fill="#04A999"/>
<path d="M5.26503 10.6584H5.96843C6.20322 10.6584 6.32037 10.4761 6.32086 10.2938H4.70844C4.86988 10.4249 5.03867 10.5466 5.21399 10.6584H5.26503Z" fill="#04A999"/>
<path d="M4.01428 10.6584H5.21399C5.03867 10.5466 4.86988 10.4249 4.70844 10.2938H3.639C3.75956 10.4205 3.88465 10.5421 4.01428 10.6584Z" fill="#04A999"/>
<path d="M1.91672 12.243H2.03582V11.8809H1.91672C1.44763 11.8809 1.44666 12.61 1.91672 12.61H2.03582V12.2454L1.91672 12.243Z" fill="#04A999"/>
<path d="M14.084 12.243H13.9649V12.61H14.084C14.5531 12.61 14.5541 11.8809 14.084 11.8809H13.9649V12.2454L14.084 12.243Z" fill="#04A999"/>
<path d="M8.258 10.041C8.18871 9.97427 8.09629 9.93701 8.00012 9.93701C7.90395 9.93701 7.81153 9.97427 7.74224 10.041L7.47828 10.2937H8.52196L8.258 10.041Z" fill="#04A999"/>
<path d="M6.88572 11.3652L8.00036 10.2987L9.19959 11.4464C9.34478 11.4218 9.48899 11.3916 9.63223 11.356L8.52244 10.2938H7.47828L6.47836 11.249C6.61318 11.2934 6.74896 11.3322 6.88572 11.3652Z" fill="#04A999"/>
<path d="M10.0323 12.243H9.48542C9.57876 12.3279 9.6729 12.4116 9.76785 12.4939C10.0109 12.7058 10.5398 12.6076 10.8373 12.6076H13.9649V12.243H10.0323Z" fill="#04A999"/>
<path d="M5.96843 12.6101C6.17892 12.5955 6.31989 12.4156 6.4628 12.2766L6.49537 12.2455H2.03582V12.6101H4.91795C5.26503 12.6101 5.62184 12.6315 5.96843 12.6101Z" fill="#04A999"/>
<path d="M5.96843 11.8809H5.8226L5.71079 11.9878L5.96843 11.8809Z" fill="#04A999"/>
<path d="M5.96843 12.2431L6.2776 11.9475C6.14797 11.906 6.0198 11.8605 5.89309 11.8109L5.82211 11.8809H5.96795L5.71031 11.9879L5.82211 11.8809H2.03582V12.2455L5.96843 12.2431Z" fill="#04A999"/>
<path d="M10.2413 11.9387L10.2899 11.9873L10.2049 11.9523C10.1076 11.9834 10.0104 12.0126 9.9132 12.0388L9.83542 12.0593L10.0299 12.2454H13.9625V11.8809H10.4139C10.3569 11.9003 10.2993 11.9196 10.2413 11.9387Z" fill="#04A999"/>
<path d="M10.2904 11.9855L10.2418 11.9369L10.2058 11.9486L10.2904 11.9855Z" fill="#04A999"/>
<path d="M10.1786 11.881L9.63223 11.356C9.48899 11.3916 9.34478 11.4217 9.19959 11.4464L9.83785 12.0574L9.91563 12.037C10.0129 12.0107 10.1101 11.9811 10.2073 11.9505L10.0323 11.881H10.1786Z" fill="#04A999"/>
<path d="M6.47836 11.249L5.89503 11.8095C6.02174 11.8591 6.14991 11.9046 6.27954 11.9461L6.88815 11.3628C6.74977 11.3313 6.61317 11.2934 6.47836 11.249Z" fill="#04A999"/>
<path d="M10.0323 11.8809L10.2053 11.9523L10.2413 11.9407L10.1786 11.8809H10.0323Z" fill="#04A999"/>
<path d="M10.2413 11.9387C10.2993 11.9196 10.357 11.8995 10.4144 11.8784H10.1786L10.2413 11.9387Z" fill="#04A999"/>
<path d="M7.74273 10.5568C7.82861 10.6388 7.914 10.7214 7.99891 10.8047L8.258 10.5568H7.74273Z" fill="#04A999"/>
<path d="M6.27711 11.9476L5.96795 12.2432H6.49343L6.68155 12.0633C6.54642 12.0293 6.4116 11.9907 6.27711 11.9476Z" fill="#04A999"/>
<path d="M9.48542 12.2432H10.0323L9.83785 12.057C9.68943 12.0952 9.54003 12.1277 9.38966 12.1542L9.48542 12.2432Z" fill="#04A999"/>
<path d="M6.88572 11.3652C7.02993 11.4002 7.17576 11.4296 7.32322 11.4532L8.00036 10.8047C7.91513 10.7215 7.82974 10.6388 7.74419 10.5568H8.258L7.99891 10.8047C8.2371 11.0376 8.47383 11.2734 8.71203 11.5077C8.87406 11.4944 9.0361 11.474 9.19814 11.4464L8.00036 10.2987L6.88572 11.3652Z" fill="#04A999"/>
<path d="M7.10252 11.6627L7.32127 11.4532C7.17544 11.4296 7.02961 11.4002 6.88377 11.3652L6.27517 11.9486C6.40933 11.9917 6.54479 12.0302 6.68155 12.0643L7.10252 11.6627Z" fill="#04A999"/>
<path d="M8.71251 11.5075C8.93563 11.7268 9.16119 11.945 9.39015 12.155C9.54019 12.1278 9.68959 12.0954 9.83834 12.0578L9.20008 11.4468C9.03804 11.4737 8.87552 11.4939 8.71251 11.5075Z" fill="#04A999"/>
<path d="M9.5282 13.8282H3.30942C2.84033 13.8282 2.83936 14.5574 3.30942 14.5574H12.6913C13.1604 14.5574 13.1614 13.8282 12.6913 13.8282H9.5282Z" fill="#04A999"/>
</svg>
