<svg width="375" height="43" viewBox="0 0 375 43" fill="none" xmlns="http://www.w3.org/2000/svg">
<g filter="url(#filter0_d_1_4483)">
<rect y="4" width="375" height="39" fill="#04A999"/>
</g>
<rect width="272" height="14.8902" transform="translate(51 16.2571)" fill="#04A999"/>
<path d="M57.3679 24.339V30.2019C57.3679 30.8572 56.8349 31.3973 56.1766 31.3973H51.9413C51.283 31.3973 50.75 30.8572 50.75 30.2019V20.544C50.75 20.1843 50.9102 19.8469 51.1904 19.6195L57.3679 24.339ZM57.3679 24.339H60.6321V30.2019C60.6321 30.8572 61.1651 31.3973 61.8234 31.3973H66.0587C66.717 31.3973 67.25 30.8572 67.25 30.2019L67.25 20.544L67.25 20.5432C67.2489 20.1843 67.0891 19.847 66.8094 19.6202C66.8094 19.6202 66.8094 19.6202 66.8094 19.6202L60.4926 14.4873L60.4925 14.4872C59.6268 13.7843 58.3724 13.7843 57.5066 14.4872L57.5066 14.4873L51.1906 19.6194L57.3679 24.339ZM58.4159 15.6057L58.4162 15.6055C58.7532 15.3309 59.2464 15.3313 59.584 15.6057L59.5841 15.6057L65.8087 20.663L65.8079 29.9569H62.0726V24.0848C62.0726 23.4263 61.5364 22.8986 60.8813 22.8986H57.117C56.462 22.8986 55.9258 23.4263 55.9258 24.0848V29.9569H52.1913V20.663L58.4159 15.6057Z" fill="white" stroke="#04A999" stroke-width="0.5"/>
<path d="M123 31.1473C127.418 31.1473 131 27.5656 131 23.1473C131 18.7291 127.418 15.1473 123 15.1473C118.582 15.1473 115 18.7291 115 23.1473C115 27.5656 118.582 31.1473 123 31.1473Z" stroke="white" stroke-miterlimit="10" stroke-linejoin="round"/>
<path d="M128.333 29.014C128.333 26.0684 125.946 23.6807 123 23.6807C120.054 23.6807 117.667 26.0684 117.667 29.014" stroke="white" stroke-miterlimit="10" stroke-linejoin="round"/>
<path d="M123 23.6807C124.767 23.6807 126.2 22.248 126.2 20.4807C126.2 18.7134 124.767 17.2807 123 17.2807C121.233 17.2807 119.8 18.7134 119.8 20.4807C119.8 22.248 121.233 23.6807 123 23.6807Z" stroke="white" stroke-miterlimit="10" stroke-linejoin="round"/>
<path d="M191.698 28.8507H182.004C181.363 27.6204 181.256 26.1696 181.732 24.8675C182.558 22.6222 184.434 20.8434 186.848 20.2026C189.263 20.8434 191.139 22.6222 191.964 24.8675C192.446 26.1696 192.339 27.6204 191.698 28.8507Z" stroke="white" stroke-miterlimit="10" stroke-linecap="round" stroke-linejoin="round"/>
<path d="M182.758 17.3421H180.113C179.938 17.0038 179.908 16.6091 180.041 16.2553C180.266 15.6402 180.779 15.1583 181.44 14.9789C182.102 15.1532 182.614 15.6402 182.84 16.2553C182.963 16.6091 182.932 17.0089 182.758 17.3421Z" stroke="white" stroke-miterlimit="10" stroke-linecap="round" stroke-linejoin="round"/>
<path d="M181.732 24.8676C181.968 24.2217 182.296 23.6168 182.691 23.0631V17.3422H180.174V28.8508H181.999C181.358 27.6204 181.25 26.1697 181.732 24.8676Z" stroke="white" stroke-miterlimit="10" stroke-linecap="round" stroke-linejoin="round"/>
<path d="M186.848 20.2026V18.8032" stroke="white" stroke-miterlimit="10" stroke-linecap="round" stroke-linejoin="round"/>
<path d="M181.435 14.9789V13.5845" stroke="white" stroke-miterlimit="10" stroke-linecap="round" stroke-linejoin="round"/>
<path d="M193 28.8508H179V31.1474H193V28.8508Z" stroke="white" stroke-miterlimit="10" stroke-linecap="round" stroke-linejoin="round"/>
<path d="M246.385 28.4589L250 26.2823L253.615 28.4845L252.661 24.364L255.842 21.6051L251.65 21.2338L250 17.3525L248.35 21.2082L244.158 21.5795L247.339 24.3535L246.385 28.4589ZM244.438 31.1473L245.907 24.8227L241 20.5701L247.474 20.0082L250 14.0444L252.526 20.0082L259 20.5701L254.093 24.8227L255.562 31.1473L250 27.7918L244.438 31.1473Z" fill="white"/>
<path d="M315.242 20.4676C314.737 20.4177 314.229 20.5251 313.787 20.7752C313.346 21.0252 312.992 21.4057 312.775 21.8644C312.558 22.3231 312.488 22.8377 312.575 23.3377C312.662 23.8377 312.901 24.2987 313.26 24.6575C313.618 25.0163 314.079 25.2555 314.579 25.3422C315.079 25.4289 315.594 25.359 316.053 25.142C316.511 24.9249 316.892 24.5714 317.142 24.1298C317.392 23.6882 317.499 23.1801 317.449 22.6751C317.393 22.109 317.142 21.5799 316.739 21.1776C316.337 20.7753 315.808 20.5244 315.242 20.4676ZM321.168 22.917C321.167 23.1846 321.147 23.4517 321.11 23.7166L322.848 25.0803C322.924 25.1431 322.975 25.2307 322.992 25.3275C323.01 25.4243 322.992 25.5241 322.943 25.6092L321.298 28.4551C321.248 28.5393 321.17 28.6032 321.077 28.6355C320.985 28.6678 320.884 28.6665 320.792 28.6316L319.065 27.9363C318.97 27.8984 318.867 27.8847 318.765 27.8964C318.663 27.9082 318.566 27.945 318.482 28.0036C318.219 28.1851 317.942 28.3463 317.654 28.4859C317.563 28.5299 317.485 28.5955 317.426 28.6769C317.367 28.7583 317.328 28.8531 317.314 28.9528L317.056 30.7946C317.039 30.8918 316.988 30.9802 316.913 31.0445C316.839 31.1088 316.744 31.1452 316.645 31.1472H313.355C313.258 31.1456 313.164 31.1109 313.09 31.0489C313.015 30.9868 312.964 30.9012 312.944 30.8061L312.686 28.967C312.671 28.8662 312.632 28.7706 312.571 28.6886C312.511 28.6066 312.431 28.5408 312.339 28.497C312.052 28.3582 311.776 28.1966 311.514 28.0136C311.43 27.9553 311.333 27.9188 311.232 27.9073C311.13 27.8958 311.028 27.9097 310.933 27.9478L309.207 28.6428C309.115 28.6776 309.014 28.6791 308.922 28.6469C308.829 28.6146 308.751 28.5508 308.701 28.4667L307.056 25.6207C307.007 25.5357 306.989 25.4358 307.006 25.339C307.024 25.2422 307.075 25.1546 307.151 25.0919L308.62 23.9381C308.701 23.8742 308.764 23.7912 308.804 23.6966C308.844 23.6021 308.86 23.499 308.851 23.3966C308.837 23.2362 308.828 23.0763 308.828 22.9159C308.828 22.7555 308.837 22.5978 308.851 22.4409C308.859 22.3392 308.843 22.2369 308.802 22.1434C308.761 22.0498 308.698 21.9678 308.617 21.9048L307.149 20.751C307.074 20.688 307.024 20.6007 307.007 20.5045C306.991 20.4083 307.008 20.3094 307.057 20.2249L308.702 17.379C308.752 17.2947 308.83 17.2308 308.923 17.1985C309.015 17.1662 309.116 17.1676 309.208 17.2024L310.935 17.8978C311.03 17.9357 311.133 17.9494 311.235 17.9376C311.337 17.9259 311.434 17.8891 311.518 17.8305C311.781 17.649 312.058 17.4878 312.346 17.3482C312.437 17.3042 312.515 17.2386 312.574 17.1572C312.633 17.0757 312.672 16.981 312.686 16.8813L312.944 15.0395C312.961 14.9422 313.012 14.8539 313.087 14.7896C313.161 14.7252 313.256 14.6889 313.355 14.6868H316.645C316.742 14.6885 316.836 14.7232 316.91 14.7852C316.985 14.8472 317.036 14.9328 317.056 15.028L317.314 16.8671C317.329 16.9679 317.368 17.0635 317.429 17.1455C317.489 17.2275 317.569 17.2933 317.661 17.337C317.948 17.4759 318.224 17.6375 318.486 17.8205C318.57 17.8788 318.667 17.9153 318.768 17.9268C318.87 17.9383 318.972 17.9243 319.067 17.8862L320.793 17.1913C320.885 17.1564 320.986 17.155 321.078 17.1872C321.171 17.2194 321.249 17.2833 321.299 17.3674L322.944 20.2134C322.993 20.2984 323.011 20.3982 322.994 20.4951C322.976 20.5919 322.925 20.6795 322.849 20.7422L321.38 21.896C321.299 21.9597 321.235 22.0426 321.195 22.1371C321.154 22.2317 321.138 22.335 321.147 22.4375C321.16 22.5967 321.168 22.7567 321.168 22.917Z" stroke="white" stroke-linecap="round" stroke-linejoin="round"/>
<defs>
<filter id="filter0_d_1_4483" x="-4" y="0" width="379" height="43" filterUnits="userSpaceOnUse" color-interpolation-filters="sRGB">
<feFlood flood-opacity="0" result="BackgroundImageFix"/>
<feColorMatrix in="SourceAlpha" type="matrix" values="0 0 0 0 0 0 0 0 0 0 0 0 0 0 0 0 0 0 127 0" result="hardAlpha"/>
<feOffset dx="-2" dy="-2"/>
<feGaussianBlur stdDeviation="1"/>
<feComposite in2="hardAlpha" operator="out"/>
<feColorMatrix type="matrix" values="0 0 0 0 0 0 0 0 0 0 0 0 0 0 0 0 0 0 0.1 0"/>
<feBlend mode="normal" in2="BackgroundImageFix" result="effect1_dropShadow_1_4483"/>
<feBlend mode="normal" in="SourceGraphic" in2="effect1_dropShadow_1_4483" result="shape"/>
</filter>
</defs>
</svg>
