<svg width="17" height="15" viewBox="0 0 17 15" fill="none" xmlns="http://www.w3.org/2000/svg">
<path d="M14.3667 10.6667H11.4726C12.1347 9.93646 12.501 8.98572 12.5 8C12.5 6.93913 12.0786 5.92172 11.3284 5.17157C10.5783 4.42143 9.56087 4 8.5 4C7.43914 4 6.42172 4.42143 5.67157 5.17157C4.92143 5.92172 4.5 6.93913 4.5 8C4.49898 8.98572 4.86529 9.93646 5.52744 10.6667H2.63334C2.56261 10.6667 2.49478 10.6948 2.44477 10.7448C2.39476 10.7948 2.36667 10.8626 2.36667 10.9333C2.36667 11.0041 2.39476 11.0719 2.44477 11.1219C2.49478 11.1719 2.56261 11.2 2.63334 11.2H14.3667C14.4374 11.2 14.5052 11.1719 14.5552 11.1219C14.6052 11.0719 14.6333 11.0041 14.6333 10.9333C14.6333 10.8626 14.6052 10.7948 14.5552 10.7448C14.5052 10.6948 14.4374 10.6667 14.3667 10.6667Z" fill="#04A999"/>
<path d="M8.5 2.93333C8.57073 2.93333 8.63856 2.90524 8.68857 2.85523C8.73858 2.80522 8.76667 2.73739 8.76667 2.66667V0.266667C8.76667 0.195942 8.73858 0.128115 8.68857 0.0781049C8.63856 0.0280952 8.57073 0 8.5 0C8.42928 0 8.36145 0.0280952 8.31144 0.0781049C8.26143 0.128115 8.23334 0.195942 8.23334 0.266667V2.66667C8.23334 2.73739 8.26143 2.80522 8.31144 2.85523C8.36145 2.90524 8.42928 2.93333 8.5 2.93333Z" fill="#04A999"/>
<path d="M4.53999 4.41721C4.59001 4.46723 4.65786 4.49533 4.7286 4.49533C4.79933 4.49533 4.86718 4.46723 4.9172 4.41721C4.96722 4.36719 4.99532 4.29935 4.99532 4.22861C4.99532 4.15787 4.96722 4.09003 4.9172 4.04001L3.78594 2.90876C3.7613 2.88348 3.73188 2.86335 3.69939 2.84953C3.6669 2.83571 3.632 2.82848 3.59669 2.82825C3.56139 2.82803 3.5264 2.83482 3.49374 2.84822C3.46108 2.86163 3.43141 2.88139 3.40644 2.90635C3.38148 2.93132 3.36172 2.96099 3.34832 2.99365C3.33491 3.0263 3.32812 3.0613 3.32834 3.0966C3.32857 3.13191 3.3358 3.16681 3.34962 3.1993C3.36344 3.23179 3.38357 3.2612 3.40885 3.28585L4.53999 4.41721Z" fill="#04A999"/>
<path d="M3.43333 7.99994C3.43333 7.92922 3.40524 7.86139 3.35523 7.81138C3.30522 7.76137 3.23739 7.73328 3.16667 7.73328H0.766667C0.695942 7.73328 0.628115 7.76137 0.578105 7.81138C0.528095 7.86139 0.5 7.92922 0.5 7.99994C0.5 8.07067 0.528095 8.1385 0.578105 8.18851C0.628115 8.23851 0.695942 8.26661 0.766667 8.26661H3.16667C3.23739 8.26661 3.30522 8.23851 3.35523 8.18851C3.40524 8.1385 3.43333 8.07067 3.43333 7.99994Z" fill="#04A999"/>
<path d="M16.2333 7.73328H13.8333C13.7626 7.73328 13.6948 7.76137 13.6448 7.81138C13.5948 7.86139 13.5667 7.92922 13.5667 7.99994C13.5667 8.07067 13.5948 8.1385 13.6448 8.18851C13.6948 8.23851 13.7626 8.26661 13.8333 8.26661H16.2333C16.3041 8.26661 16.3719 8.23851 16.4219 8.18851C16.4719 8.1385 16.5 8.07067 16.5 7.99994C16.5 7.92922 16.4719 7.86139 16.4219 7.81138C16.3719 7.76137 16.3041 7.73328 16.2333 7.73328Z" fill="#04A999"/>
<path d="M12.2714 4.49531C12.3064 4.49536 12.3411 4.48848 12.3734 4.47508C12.4058 4.46167 12.4352 4.44201 12.4599 4.41721L13.5912 3.28595C13.6401 3.23573 13.6673 3.16824 13.6669 3.09811C13.6664 3.02797 13.6384 2.96083 13.5888 2.91123C13.5392 2.86164 13.472 2.83358 13.4019 2.83314C13.3318 2.83269 13.2643 2.8599 13.2141 2.90886L12.0828 4.04001C12.0455 4.0773 12.0201 4.12481 12.0098 4.17654C11.9996 4.22826 12.0048 4.28187 12.025 4.33059C12.0452 4.37931 12.0794 4.42096 12.1232 4.45026C12.1671 4.47956 12.2186 4.49531 12.2714 4.49531Z" fill="#04A999"/>
<path d="M14.3667 10.6667H11.4726C12.1347 9.93646 12.501 8.98572 12.5 8C12.5 6.93913 12.0786 5.92172 11.3284 5.17157C10.5783 4.42143 9.56087 4 8.5 4C7.43914 4 6.42172 4.42143 5.67157 5.17157C4.92143 5.92172 4.5 6.93913 4.5 8C4.49898 8.98572 4.86529 9.93646 5.52744 10.6667H2.63334C2.56261 10.6667 2.49478 10.6948 2.44477 10.7448C2.39476 10.7948 2.36667 10.8626 2.36667 10.9333C2.36667 11.0041 2.39476 11.0719 2.44477 11.1219C2.49478 11.1719 2.56261 11.2 2.63334 11.2H14.3667C14.4374 11.2 14.5052 11.1719 14.5552 11.1219C14.6052 11.0719 14.6333 11.0041 14.6333 10.9333C14.6333 10.8626 14.6052 10.7948 14.5552 10.7448C14.5052 10.6948 14.4374 10.6667 14.3667 10.6667ZM10.7128 10.6667H6.28723C5.73825 10.2115 5.34302 9.59802 5.15542 8.90998C4.96783 8.22194 4.997 7.49278 5.23895 6.82192C5.48091 6.15107 5.92387 5.57115 6.50746 5.16125C7.09104 4.75135 7.78685 4.5314 8.5 4.5314C9.21316 4.5314 9.90896 4.75135 10.4925 5.16125C11.0761 5.57115 11.5191 6.15107 11.7611 6.82192C12.003 7.49278 12.0322 8.22194 11.8446 8.90998C11.657 9.59802 11.2618 10.2115 10.7128 10.6667Z" fill="#04A999"/>
<path d="M12.2333 13.8667H4.76667C4.69594 13.8667 4.62811 13.8948 4.5781 13.9448C4.52809 13.9948 4.5 14.0626 4.5 14.1334C4.5 14.2041 4.52809 14.2719 4.5781 14.3219C4.62811 14.3719 4.69594 14.4 4.76667 14.4H12.2333C12.3041 14.4 12.3719 14.3719 12.4219 14.3219C12.4719 14.2719 12.5 14.2041 12.5 14.1334C12.5 14.0626 12.4719 13.9948 12.4219 13.9448C12.3719 13.8948 12.3041 13.8667 12.2333 13.8667Z" fill="#04A999"/>
<path d="M13.3 12.2667H3.69999C3.62926 12.2667 3.56143 12.2948 3.51142 12.3448C3.46141 12.3948 3.43332 12.4627 3.43332 12.5334C3.43332 12.6041 3.46141 12.6719 3.51142 12.722C3.56143 12.772 3.62926 12.8001 3.69999 12.8001H13.3C13.3707 12.8001 13.4385 12.772 13.4885 12.722C13.5386 12.6719 13.5667 12.6041 13.5667 12.5334C13.5667 12.4627 13.5386 12.3948 13.4885 12.3448C13.4385 12.2948 13.3707 12.2667 13.3 12.2667Z" fill="#04A999"/>
</svg>
