<svg width="329" height="17" viewBox="0 0 329 17" fill="none" xmlns="http://www.w3.org/2000/svg">
<path d="M4.86133 14.1392C4.11228 14.1392 3.47425 13.9354 2.94727 13.5277C2.42028 13.1167 2.01758 12.5218 1.73917 11.7429C1.46076 10.9607 1.32156 10.0161 1.32156 8.90909C1.32156 7.80871 1.46076 6.86908 1.73917 6.0902C2.02089 5.308 2.42525 4.71141 2.95224 4.30043C3.48254 3.88613 4.1189 3.67898 4.86133 3.67898C5.60375 3.67898 6.23846 3.88613 6.76545 4.30043C7.29575 4.71141 7.70011 5.308 7.97852 6.0902C8.26024 6.86908 8.4011 7.80871 8.4011 8.90909C8.4011 10.0161 8.2619 10.9607 7.98349 11.7429C7.70508 12.5218 7.30238 13.1167 6.77539 13.5277C6.2484 13.9354 5.61038 14.1392 4.86133 14.1392ZM4.86133 13.0455C5.60375 13.0455 6.18046 12.6875 6.59144 11.9716C7.00243 11.2557 7.20792 10.2348 7.20792 8.90909C7.20792 8.02746 7.11346 7.27675 6.92454 6.65696C6.73893 6.03717 6.47047 5.56487 6.11914 5.24006C5.77113 4.91525 5.35186 4.75284 4.86133 4.75284C4.12553 4.75284 3.55049 5.11577 3.13619 5.84162C2.72189 6.56416 2.51474 7.58665 2.51474 8.90909C2.51474 9.79072 2.60754 10.5398 2.79315 11.1562C2.97875 11.7727 3.24556 12.2417 3.59357 12.5632C3.9449 12.8847 4.36748 13.0455 4.86133 13.0455ZM13.0318 3.67898C13.4494 3.68229 13.867 3.76184 14.2846 3.91761C14.7022 4.07339 15.0834 4.33191 15.4281 4.69318C15.7728 5.05114 16.0495 5.54001 16.2583 6.1598C16.4672 6.77959 16.5716 7.55682 16.5716 8.49148C16.5716 9.39631 16.4854 10.2 16.313 10.9027C16.144 11.602 15.8987 12.192 15.5772 12.6726C15.2591 13.1532 14.8713 13.5178 14.4139 13.7663C13.9598 14.0149 13.4461 14.1392 12.8727 14.1392C12.3026 14.1392 11.7939 14.0265 11.3464 13.8011C10.9023 13.5724 10.5377 13.2559 10.2527 12.8516C9.97094 12.4439 9.79031 11.9716 9.71076 11.4347H10.9238C11.0332 11.902 11.2503 12.2881 11.5751 12.593C11.9032 12.8946 12.3358 13.0455 12.8727 13.0455C13.6582 13.0455 14.278 12.7024 14.7321 12.0163C15.1895 11.3303 15.4181 10.3608 15.4181 9.10795H15.3386C15.153 9.38636 14.9326 9.62666 14.6774 9.82884C14.4222 10.031 14.1388 10.1868 13.8272 10.2962C13.5157 10.4055 13.1842 10.4602 12.8329 10.4602C12.2496 10.4602 11.7143 10.3161 11.2271 10.0277C10.7432 9.73603 10.3554 9.33665 10.0637 8.82955C9.77539 8.31913 9.63121 7.7358 9.63121 7.07955C9.63121 6.45644 9.77042 5.88636 10.0488 5.36932C10.3306 4.84896 10.725 4.43466 11.2321 4.12642C11.7425 3.81818 12.3424 3.66903 13.0318 3.67898ZM13.0318 4.77273C12.6142 4.77273 12.238 4.87713 11.9032 5.08594C11.5718 5.29143 11.3083 5.56984 11.1127 5.92116C10.9205 6.26918 10.8244 6.6553 10.8244 7.07955C10.8244 7.50379 10.9172 7.88991 11.1028 8.23793C11.2917 8.58262 11.5486 8.85772 11.8734 9.06321C12.2015 9.26539 12.5744 9.36648 12.992 9.36648C13.3069 9.36648 13.6002 9.30516 13.872 9.18253C14.1438 9.05658 14.3807 8.88589 14.5829 8.67045C14.7884 8.4517 14.9492 8.20478 15.0652 7.92969C15.1812 7.65128 15.2392 7.36127 15.2392 7.05966C15.2392 6.66193 15.1431 6.28906 14.9508 5.94105C14.7619 5.59304 14.5001 5.31132 14.1653 5.09588C13.8339 4.88044 13.456 4.77273 13.0318 4.77273ZM18.5462 14.0795C18.3009 14.0795 18.0904 13.9917 17.9148 13.8161C17.7391 13.6404 17.6513 13.4299 17.6513 13.1847C17.6513 12.9394 17.7391 12.7289 17.9148 12.5533C18.0904 12.3776 18.3009 12.2898 18.5462 12.2898C18.7914 12.2898 19.0019 12.3776 19.1776 12.5533C19.3532 12.7289 19.4411 12.9394 19.4411 13.1847C19.4411 13.3471 19.3996 13.4962 19.3168 13.6321C19.2372 13.768 19.1295 13.8774 18.9936 13.9602C18.861 14.0398 18.7119 14.0795 18.5462 14.0795ZM23.3894 3.81818V14H22.1564V5.1108H22.0968L19.611 6.76136V5.50852L22.1564 3.81818H23.3894ZM29.1387 14.1392C28.3896 14.1392 27.7516 13.9354 27.2246 13.5277C26.6976 13.1167 26.2949 12.5218 26.0165 11.7429C25.7381 10.9607 25.5989 10.0161 25.5989 8.90909C25.5989 7.80871 25.7381 6.86908 26.0165 6.0902C26.2982 5.308 26.7026 4.71141 27.2296 4.30043C27.7599 3.88613 28.3962 3.67898 29.1387 3.67898C29.8811 3.67898 30.5158 3.88613 31.0428 4.30043C31.5731 4.71141 31.9775 5.308 32.2559 6.0902C32.5376 6.86908 32.6784 7.80871 32.6784 8.90909C32.6784 10.0161 32.5392 10.9607 32.2608 11.7429C31.9824 12.5218 31.5797 13.1167 31.0527 13.5277C30.5257 13.9354 29.8877 14.1392 29.1387 14.1392ZM29.1387 13.0455C29.8811 13.0455 30.4578 12.6875 30.8688 11.9716C31.2798 11.2557 31.4853 10.2348 31.4853 8.90909C31.4853 8.02746 31.3908 7.27675 31.2019 6.65696C31.0163 6.03717 30.7478 5.56487 30.3965 5.24006C30.0485 4.91525 29.6292 4.75284 29.1387 4.75284C28.4029 4.75284 27.8278 5.11577 27.4135 5.84162C26.9992 6.56416 26.7921 7.58665 26.7921 8.90909C26.7921 9.79072 26.8849 10.5398 27.0705 11.1562C27.2561 11.7727 27.5229 12.2417 27.8709 12.5632C28.2222 12.8847 28.6448 13.0455 29.1387 13.0455Z" fill="#414141"/>
<path fill-rule="evenodd" clip-rule="evenodd" d="M269.804 4.49993H268.637C267.993 4.49993 267.471 5.00361 267.471 5.62493V15.3749C267.471 15.9963 267.993 16.4999 268.637 16.4999H269.804C270.448 16.4999 270.971 15.9963 270.971 15.3749V5.62493C270.971 5.00361 270.448 4.49993 269.804 4.49993ZM263.147 7.12507H264.314C264.958 7.12507 265.48 7.62875 265.48 8.25007V15.3751C265.48 15.9964 264.958 16.5001 264.314 16.5001H263.147C262.503 16.5001 261.98 15.9964 261.98 15.3751V8.25007C261.98 7.62875 262.503 7.12507 263.147 7.12507ZM258.824 9.74985H257.657C257.013 9.74985 256.49 10.2535 256.49 10.8749V15.3749C256.49 15.9962 257.013 16.4999 257.657 16.4999H258.824C259.468 16.4999 259.99 15.9962 259.99 15.3749V10.8749C259.99 10.2535 259.468 9.74985 258.824 9.74985ZM253.333 11.9998H252.167C251.522 11.9998 251 12.5035 251 13.1248V15.3748C251 15.9961 251.522 16.4998 252.167 16.4998H253.333C253.978 16.4998 254.5 15.9961 254.5 15.3748V13.1248C254.5 12.5035 253.978 11.9998 253.333 11.9998Z" fill="#414141"/>
<path fill-rule="evenodd" clip-rule="evenodd" d="M285.971 6.84599C288.438 6.8461 290.81 7.81668 292.598 9.55712C292.732 9.69149 292.947 9.68979 293.08 9.55332L294.367 8.2234C294.434 8.15418 294.471 8.06042 294.471 7.96287C294.47 7.86531 294.432 7.77201 294.364 7.7036C289.672 3.0988 282.27 3.0988 277.578 7.7036C277.51 7.77196 277.471 7.86523 277.471 7.96279C277.47 8.06034 277.507 8.15413 277.575 8.2234L278.862 9.55332C278.994 9.69 279.209 9.6917 279.344 9.55712C281.132 7.81656 283.504 6.84598 285.971 6.84599ZM285.971 11.1727C287.326 11.1726 288.633 11.6884 289.638 12.62C289.774 12.7522 289.988 12.7493 290.12 12.6135L291.405 11.2836C291.473 11.2139 291.511 11.1192 291.51 11.0209C291.509 10.9226 291.469 10.8287 291.4 10.7604C288.341 7.84629 283.604 7.84629 280.545 10.7604C280.476 10.8287 280.436 10.9226 280.435 11.021C280.434 11.1193 280.472 11.214 280.54 11.2836L281.825 12.6135C281.957 12.7493 282.171 12.7522 282.307 12.62C283.311 11.689 284.617 11.1732 285.971 11.1727ZM288.546 14.084C288.548 14.1826 288.51 14.2777 288.441 14.3468L286.218 16.6445C286.153 16.712 286.064 16.75 285.971 16.75C285.878 16.75 285.79 16.712 285.724 16.6445L283.501 14.3468C283.432 14.2776 283.394 14.1825 283.396 14.0839C283.398 13.9853 283.44 13.8919 283.512 13.8258C284.931 12.596 287.011 12.596 288.431 13.8258C288.502 13.892 288.544 13.9854 288.546 14.084Z" fill="#414141"/>
<rect opacity="0.4" x="301.471" y="4.5" width="24" height="12" rx="3.5" stroke="#414141"/>
<path opacity="0.5" d="M326.971 8.5V12.5C327.777 12.1612 328.301 11.3731 328.301 10.5C328.301 9.62687 327.777 8.83878 326.971 8.5Z" fill="#414141"/>
<rect x="302.971" y="6" width="17" height="9" rx="2" fill="#414141"/>
</svg>
